<svg width="27" height="27" viewBox="0 0 27 27" fill="none" xmlns="http://www.w3.org/2000/svg">
<path d="M24.6795 13.4611H21.8974C21.4072 13.4601 20.9301 13.6196 20.5391 13.9154C20.1481 14.2112 19.8647 14.6269 19.7324 15.0989L17.0961 24.4771C17.0791 24.5354 17.0437 24.5866 16.9952 24.623C16.9466 24.6594 16.8876 24.6791 16.8269 24.6791C16.7662 24.6791 16.7072 24.6594 16.6586 24.623C16.6101 24.5866 16.5747 24.5354 16.5577 24.4771L10.3654 2.44509C10.3484 2.38683 10.313 2.33566 10.2644 2.29925C10.2159 2.26285 10.1568 2.24316 10.0961 2.24316C10.0355 2.24316 9.97642 2.26285 9.92787 2.29925C9.87933 2.33566 9.8439 2.38683 9.82691 2.44509L7.19069 11.8233C7.05884 12.2935 6.77718 12.7078 6.38846 13.0034C5.99973 13.299 5.52518 13.4597 5.03684 13.4611H2.24358" stroke="white" stroke-width="2.24359" stroke-linecap="round" stroke-linejoin="round"/>
</svg>
