<svg width="16" height="16" viewBox="0 0 16 16" fill="none" xmlns="http://www.w3.org/2000/svg">
<path d="M10.4341 13.6958V12.3916C10.4341 11.6998 10.1593 11.0364 9.67013 10.5472C9.18096 10.058 8.5175 9.7832 7.82571 9.7832H3.9131C3.2213 9.7832 2.55784 10.058 2.06867 10.5472C1.5795 11.0364 1.30469 11.6998 1.30469 12.3916V13.6958" stroke="#6B7280" stroke-width="1.30433" stroke-linecap="round" stroke-linejoin="round"/>
<path d="M5.86964 7.17287C7.31022 7.17287 8.47805 6.00505 8.47805 4.56446C8.47805 3.12388 7.31022 1.95605 5.86964 1.95605C4.42905 1.95605 3.26123 3.12388 3.26123 4.56446C3.26123 6.00505 4.42905 7.17287 5.86964 7.17287Z" stroke="#6B7280" stroke-width="1.30433" stroke-linecap="round" stroke-linejoin="round"/>
<path d="M11.0874 5.2168L14.3479 8.47731" stroke="#6B7280" stroke-width="1.30433" stroke-linecap="round" stroke-linejoin="round"/>
<path d="M14.3479 5.2168L11.0874 8.47731" stroke="#6B7280" stroke-width="1.30433" stroke-linecap="round" stroke-linejoin="round"/>
</svg>
