<svg width="25" height="20" viewBox="0 0 25 20" fill="none" xmlns="http://www.w3.org/2000/svg">
<g clip-path="url(#clip0_142_6168)">
<path fill-rule="evenodd" clip-rule="evenodd" d="M0.144443 5.00415H1.79012V0H8.13684C10.1304 0 11.6723 0.518044 12.7626 1.55413C13.6577 2.40647 14.1866 3.55986 14.3432 5.01228H16.6418C16.6802 5.01333 16.7166 5.02916 16.7435 5.05646C16.7705 5.08376 16.7858 5.12041 16.7863 5.15875V7.39637C16.7858 7.43471 16.7705 7.47136 16.7435 7.49866C16.7166 7.52596 16.6802 7.54179 16.6418 7.54283H14.27C13.9499 9.34379 13.0406 10.6572 11.5421 11.4831L14.9962 19.5284V19.7318H10.7243L7.75034 12.5409H5.77106V19.7318H1.79012V7.5408H0.144443C0.106118 7.53975 0.069683 7.52392 0.0427632 7.49662C0.0158434 7.46933 0.000525225 7.43267 1.43272e-05 7.39434V5.15671C-0.000255237 5.13757 0.00328147 5.11857 0.0104189 5.10082C0.0175563 5.08306 0.0281521 5.0669 0.0415905 5.05327C0.0550289 5.03964 0.0710418 5.02882 0.0886986 5.02143C0.106355 5.01405 0.125304 5.01025 0.144443 5.01025V5.00415ZM21.941 16.5584C21.9357 16.4149 21.8991 16.2742 21.8338 16.1463C21.7684 16.0184 21.6759 15.9063 21.5626 15.818C21.3063 15.5902 20.7367 15.2871 19.8559 14.8985C18.5581 14.3723 17.6657 13.8299 17.1789 13.2712C16.6853 12.6845 16.4259 11.9361 16.4506 11.1698C16.4392 10.678 16.5357 10.1897 16.7332 9.73917C16.9307 9.28863 17.2244 8.88682 17.5939 8.56197C18.3492 7.8717 19.3528 7.52656 20.6045 7.52656C21.9267 7.52656 22.9804 7.86831 23.7738 8.54366C24.5671 9.21902 24.9658 10.1405 24.9658 11.2878H21.8189C21.8189 10.3087 21.4121 9.81911 20.5984 9.81911C20.4489 9.8144 20.2999 9.83949 20.1602 9.89292C20.0205 9.94636 19.8929 10.0271 19.7847 10.1303C19.6744 10.2452 19.589 10.3817 19.5341 10.5312C19.4791 10.6807 19.4557 10.84 19.4653 10.999C19.4679 11.1353 19.5009 11.2694 19.5618 11.3915C19.6226 11.5136 19.7099 11.6206 19.8172 11.7048C20.0573 11.9082 20.6147 12.2032 21.4995 12.5775C22.7831 13.0535 23.6863 13.5946 24.2172 14.1642C24.7482 14.7338 25.0106 15.5006 25.0106 16.4262C25.0267 16.9232 24.9256 17.417 24.7153 17.8676C24.505 18.3182 24.1915 18.713 23.8002 19.0198C22.9865 19.6728 21.9328 19.9983 20.6187 19.9983C19.8065 20.0195 19.0012 19.8444 18.2712 19.4877C17.6167 19.165 17.0656 18.6654 16.6805 18.0454C16.3061 17.4504 16.1085 16.7611 16.1109 16.058H19.1012C19.1175 16.6032 19.2416 17.0182 19.4857 17.2907C19.7298 17.5633 20.1183 17.6976 20.6696 17.6976C21.5117 17.6976 21.9369 17.3152 21.9369 16.5523L21.941 16.5584ZM5.77106 5.00415H10.2748C9.98593 3.88669 9.26175 3.32864 8.10226 3.32999H5.77106V5.00415ZM10.2565 7.5408H5.78123V9.21088H8.03309C8.82779 9.21088 9.42449 8.94779 9.82319 8.42161C10.0183 8.15576 10.1649 7.85759 10.2565 7.5408Z" fill="#0096DC"/>
</g>
<defs>
<clipPath id="clip0_142_6168">
<rect width="24.9963" height="20" fill="white"/>
</clipPath>
</defs>
</svg>
