<svg width="16" height="16" viewBox="0 0 16 16" fill="none" xmlns="http://www.w3.org/2000/svg">
<path d="M2.87868 13.1213C2 12.2427 2 10.8284 2 8C2 5.17157 2 3.75736 2.87868 2.87868C3.75736 2 5.17157 2 8 2C10.8284 2 12.2427 2 13.1213 2.87868C14 3.75736 14 5.17157 14 8C14 10.8284 14 12.2427 13.1213 13.1213C12.2427 14 10.8284 14 8 14C5.17157 14 3.75736 14 2.87868 13.1213Z" stroke="#0096DC" stroke-linecap="round" stroke-linejoin="round"/>
<path d="M4.6665 9.33366L6.52843 7.47173C6.78877 7.21139 7.2109 7.21139 7.47124 7.47173L8.52844 8.52893C8.78877 8.78926 9.2109 8.78926 9.47124 8.52893L11.3332 6.66699" stroke="#0096DC" stroke-linecap="round" stroke-linejoin="round"/>
</svg>
