<svg width="16" height="16" viewBox="0 0 16 16" fill="none" xmlns="http://www.w3.org/2000/svg">
<path d="M4.6665 11.3337V8.66699" stroke="#F4AF00" stroke-linecap="round"/>
<path d="M8 11.3337V4.66699" stroke="#F4AF00" stroke-linecap="round"/>
<path d="M11.3335 11.333V7.33301" stroke="#F4AF00" stroke-linecap="round"/>
<path d="M1.6665 8.00033C1.6665 5.01477 1.6665 3.52199 2.594 2.59449C3.5215 1.66699 5.01428 1.66699 7.99984 1.66699C10.9854 1.66699 12.4782 1.66699 13.4057 2.59449C14.3332 3.52199 14.3332 5.01477 14.3332 8.00033C14.3332 10.9859 14.3332 12.4787 13.4057 13.4062C12.4782 14.3337 10.9854 14.3337 7.99984 14.3337C5.01428 14.3337 3.5215 14.3337 2.594 13.4062C1.6665 12.4787 1.6665 10.9859 1.6665 8.00033Z" stroke="#F4AF00" stroke-linejoin="round"/>
</svg>
