<svg width="27" height="27" viewBox="0 0 27 27" fill="none" xmlns="http://www.w3.org/2000/svg">
<path d="M16.8269 2.24316H6.73077C6.13574 2.24316 5.56507 2.47954 5.14431 2.9003C4.72356 3.32105 4.48718 3.89172 4.48718 4.48675V22.4355C4.48718 23.0305 4.72356 23.6012 5.14431 24.0219C5.56507 24.4427 6.13574 24.6791 6.73077 24.6791H20.1923C20.7873 24.6791 21.358 24.4427 21.7788 24.0219C22.1995 23.6012 22.4359 23.0305 22.4359 22.4355V7.85214L16.8269 2.24316Z" stroke="white" stroke-width="2.24359" stroke-linecap="round" stroke-linejoin="round"/>
<path d="M15.7051 2.24316V6.73034C15.7051 7.32538 15.9415 7.89605 16.3623 8.3168C16.783 8.73756 17.3537 8.97393 17.9487 8.97393H22.4359" stroke="white" stroke-width="2.24359" stroke-linecap="round" stroke-linejoin="round"/>
<path d="M11.2179 10.0967H8.97435" stroke="white" stroke-width="2.24359" stroke-linecap="round" stroke-linejoin="round"/>
<path d="M17.9487 14.584H8.97435" stroke="white" stroke-width="2.24359" stroke-linecap="round" stroke-linejoin="round"/>
<path d="M17.9487 19.0703H8.97435" stroke="white" stroke-width="2.24359" stroke-linecap="round" stroke-linejoin="round"/>
</svg>
