<svg width="16" height="16" viewBox="0 0 16 16" fill="none" xmlns="http://www.w3.org/2000/svg">
<g clip-path="url(#clip0_104_6656)">
<path d="M10.5113 13.7961V12.4822C10.5113 11.7853 10.2344 11.1169 9.74164 10.6241C9.24885 10.1313 8.58047 9.85449 7.88355 9.85449H3.94195C3.24503 9.85449 2.57665 10.1313 2.08386 10.6241C1.59106 11.1169 1.31421 11.7853 1.31421 12.4822V13.7961" stroke="#6B7280" stroke-width="1.31387" stroke-linecap="round" stroke-linejoin="round"/>
<path d="M10.511 2.05566C11.0745 2.20175 11.5735 2.5308 11.9298 2.99118C12.286 3.45156 12.4793 4.0172 12.4793 4.59931C12.4793 5.18143 12.286 5.74707 11.9298 6.20745C11.5735 6.66783 11.0745 6.99688 10.511 7.14296" stroke="#6B7280" stroke-width="1.31387" stroke-linecap="round" stroke-linejoin="round"/>
<path d="M14.4522 13.7957V12.4818C14.4518 11.8996 14.258 11.334 13.9013 10.8738C13.5446 10.4137 13.0452 10.085 12.4814 9.93945" stroke="#6B7280" stroke-width="1.31387" stroke-linecap="round" stroke-linejoin="round"/>
<path d="M5.91289 7.22618C7.36415 7.22618 8.54063 6.0497 8.54063 4.59844C8.54063 3.14718 7.36415 1.9707 5.91289 1.9707C4.46163 1.9707 3.28516 3.14718 3.28516 4.59844C3.28516 6.0497 4.46163 7.22618 5.91289 7.22618Z" stroke="#6B7280" stroke-width="1.31387" stroke-linecap="round" stroke-linejoin="round"/>
</g>
<defs>
<clipPath id="clip0_104_6656">
<rect width="15.7664" height="15.7664" fill="white"/>
</clipPath>
</defs>
</svg>
