<svg width="16" height="16" viewBox="0 0 16 16" fill="none" xmlns="http://www.w3.org/2000/svg">
<path d="M13.3332 10.6663V5.33301C13.3332 3.44739 13.3332 2.50458 12.7474 1.91879C12.1616 1.33301 11.2188 1.33301 9.33317 1.33301H6.6665C4.78088 1.33301 3.83808 1.33301 3.25229 1.91879C2.6665 2.50458 2.6665 3.44739 2.6665 5.33301V10.6663C2.6665 12.5519 2.6665 13.4947 3.25229 14.0805C3.83808 14.6663 4.78088 14.6663 6.6665 14.6663H9.33317C11.2188 14.6663 12.1616 14.6663 12.7474 14.0805C13.3332 13.4947 13.3332 12.5519 13.3332 10.6663Z" stroke="#00A63E" stroke-width="1.5" stroke-linecap="round" stroke-linejoin="round"/>
<path d="M10.3332 1.33301H5.6665C5.6665 2.27581 5.6665 2.74722 5.9594 3.04011C6.25229 3.33301 6.7237 3.33301 7.6665 3.33301H8.33317C9.27597 3.33301 9.74737 3.33301 10.0403 3.04011C10.3332 2.74722 10.3332 2.27581 10.3332 1.33301Z" stroke="#00A63E" stroke-width="1.5" stroke-linecap="round" stroke-linejoin="round"/>
<path d="M5.3335 9.99967H8.00016M5.3335 7.33301H10.6668" stroke="#00A63E" stroke-width="1.5" stroke-linecap="round" stroke-linejoin="round"/>
</svg>
